<?xml version="1.0" encoding="UTF-8"?>
<svg width="30px" height="30px" viewBox="0 0 30 30" version="1.1" xmlns="http://www.w3.org/2000/svg" xmlns:xlink="http://www.w3.org/1999/xlink">
    <title>components / image / small icon / activity / change order approved</title>
    <defs>
        <path d="M24.6551724,20.1724138 L1.34482759,20.1724138 C0.60337931,20.1724138 0,20.7757931 0,21.5172414 C0,22.2586897 0.60337931,22.862069 1.34482759,22.862069 L24.6551724,22.862069 C25.3966207,22.862069 26,22.2586897 26,21.5172414 C26,20.7757931 25.3966207,20.1724138 24.6551724,20.1724138" id="path-1"></path>
        <filter x="-71.2%" y="-316.0%" width="203.8%" height="1375.6%" filterUnits="objectBoundingBox" id="filter-2">
            <feMorphology radius="1.5" operator="erode" in="SourceAlpha" result="shadowSpreadOuter1"></feMorphology>
            <feOffset dx="0" dy="10" in="shadowSpreadOuter1" result="shadowOffsetOuter1"></feOffset>
            <feGaussianBlur stdDeviation="5" in="shadowOffsetOuter1" result="shadowBlurOuter1"></feGaussianBlur>
            <feColorMatrix values="0 0 0 0 0   0 0 0 0 0   0 0 0 0 0  0 0 0 0.2 0" type="matrix" in="shadowBlurOuter1"></feColorMatrix>
        </filter>
        <path d="M3.13793103,17.9310345 L22.862069,17.9310345 C23.8482759,17.9310345 24.6551724,17.1241379 24.6551724,16.137931 C24.6551724,10.1668966 20.1365517,5.22689655 14.3448276,4.56344828 L14.3448276,2.68965517 L15.6896552,2.68965517 C16.4337931,2.68965517 17.0344828,2.08896552 17.0344828,1.34482759 C17.0344828,0.600689655 16.4337931,0 15.6896552,0 L10.3103448,0 C9.5662069,0 8.96551724,0.600689655 8.96551724,1.34482759 C8.96551724,2.08896552 9.5662069,2.68965517 10.3103448,2.68965517 L11.6551724,2.68965517 L11.6551724,4.56344828 C5.86344828,5.22689655 1.34482759,10.1668966 1.34482759,16.137931 C1.34482759,17.1241379 2.15172414,17.9310345 3.13793103,17.9310345" id="path-3"></path>
        <filter x="-66.1%" y="-47.4%" width="232.3%" height="289.6%" filterUnits="objectBoundingBox" id="filter-4">
            <feMorphology radius="1.5" operator="erode" in="SourceAlpha" result="shadowSpreadOuter1"></feMorphology>
            <feOffset dx="0" dy="10" in="shadowSpreadOuter1" result="shadowOffsetOuter1"></feOffset>
            <feGaussianBlur stdDeviation="5" in="shadowOffsetOuter1" result="shadowBlurOuter1"></feGaussianBlur>
            <feColorMatrix values="0 0 0 0 0   0 0 0 0 0   0 0 0 0 0  0 0 0 0.2 0" type="matrix" in="shadowBlurOuter1"></feColorMatrix>
        </filter>
        <polygon id="path-5" points="0 22.862069 26 22.862069 26 0 0 0"></polygon>
        <polygon id="path-7" points="20 15.900194 14.1807541 21.7194068 10 17.5486162 11.4101906 16.1384918 14.1807541 18.9190188 15.1737995 17.9259734 18.599806 14.5"></polygon>
        <filter x="-35.0%" y="-34.6%" width="170.0%" height="197.0%" filterUnits="objectBoundingBox" id="filter-8">
            <feOffset dx="0" dy="1" in="SourceAlpha" result="shadowOffsetOuter1"></feOffset>
            <feGaussianBlur stdDeviation="1" in="shadowOffsetOuter1" result="shadowBlurOuter1"></feGaussianBlur>
            <feColorMatrix values="0 0 0 0 0   0 0 0 0 0   0 0 0 0 0  0 0 0 0.2 0" type="matrix" in="shadowBlurOuter1"></feColorMatrix>
        </filter>
        <rect id="path-9" x="0" y="0" width="15" height="30"></rect>
        <polygon id="path-11" points="0 22.862069 26 22.862069 26 0 0 0"></polygon>
    </defs>
    <g id="components-/-image-/-small-icon-/-activity-/-change-order-approved" stroke="none" stroke-width="1" fill="none" fill-rule="evenodd">
        <g id="Shadow" transform="translate(2.000000, 6.000000)">
            <g id="Fill-1">
                <use fill="black" fill-opacity="1" filter="url(#filter-2)" xlink:href="#path-1"></use>
                <use fill="#000000" fill-rule="evenodd" xlink:href="#path-1"></use>
            </g>
            <g id="Fill-3">
                <use fill="black" fill-opacity="1" filter="url(#filter-4)" xlink:href="#path-3"></use>
                <use fill="#000000" fill-rule="evenodd" xlink:href="#path-3"></use>
            </g>
        </g>
        <g id="Bell-Icon" transform="translate(2.000000, 6.000000)">
            <path d="M24.6551724,22.4137931 L1.34482759,22.4137931 C0.849931034,22.4137931 0.448275862,22.0121379 0.448275862,21.5172414 C0.448275862,21.0223448 0.849931034,20.6206897 1.34482759,20.6206897 L24.6551724,20.6206897 C25.150069,20.6206897 25.5517241,21.0223448 25.5517241,21.5172414 C25.5517241,22.0121379 25.150069,22.4137931 24.6551724,22.4137931" id="Fill-1" fill="#23C38E"></path>
            <path d="M24.6551724,22.4137931 L1.34482759,22.4137931 C0.849931034,22.4137931 0.448275862,22.0121379 0.448275862,21.5172414 C0.448275862,21.0223448 0.849931034,20.6206897 1.34482759,20.6206897 L24.6551724,20.6206897 C25.150069,20.6206897 25.5517241,21.0223448 25.5517241,21.5172414 C25.5517241,22.0121379 25.150069,22.4137931 24.6551724,22.4137931 Z" id="Stroke-3" stroke="#23C38E" stroke-linecap="round" stroke-linejoin="round"></path>
            <path d="M3.13793103,17.0344828 C2.64303448,17.0344828 2.24137931,16.6328276 2.24137931,16.137931 C2.24137931,10.2054483 7.06751724,5.37931034 13,5.37931034 C18.9324828,5.37931034 23.7586207,10.2054483 23.7586207,16.137931 C23.7586207,16.6328276 23.3569655,17.0344828 22.862069,17.0344828 L3.13793103,17.0344828 Z" id="Fill-5" fill="#23C38E"></path>
            <path d="M13,4.48275862 C6.57351724,4.48275862 1.34482759,9.71144828 1.34482759,16.137931 C1.34482759,17.1277241 2.14813793,17.9310345 3.13793103,17.9310345 L22.862069,17.9310345 C23.8518621,17.9310345 24.6551724,17.1277241 24.6551724,16.137931 C24.6551724,9.71144828 19.4264828,4.48275862 13,4.48275862 M13,6.27586207 C18.4465517,6.27586207 22.862069,10.6913793 22.862069,16.137931 L3.13793103,16.137931 C3.13793103,10.6913793 7.55344828,6.27586207 13,6.27586207" id="Fill-7" fill="#23C38E"></path>
            <mask id="mask-6" fill="white">
                <use xlink:href="#path-5"></use>
            </mask>
            <g id="Clip-10"></g>
            <polygon id="Fill-9" fill="#23C38E" mask="url(#mask-6)" points="12.1034483 6.72413793 13.8965517 6.72413793 13.8965517 1.34482759 12.1034483 1.34482759"></polygon>
            <polygon id="Stroke-11" stroke="#23C38E" stroke-linecap="round" stroke-linejoin="round" mask="url(#mask-6)" points="12.1034483 6.72413793 13.8965517 6.72413793 13.8965517 1.34482759 12.1034483 1.34482759"></polygon>
            <path d="M15.6896552,2.24137931 L10.3103448,2.24137931 C9.81544828,2.24137931 9.4137931,1.83972414 9.4137931,1.34482759 C9.4137931,0.849931034 9.81544828,0.448275862 10.3103448,0.448275862 L15.6896552,0.448275862 C16.1845517,0.448275862 16.5862069,0.849931034 16.5862069,1.34482759 C16.5862069,1.83972414 16.1845517,2.24137931 15.6896552,2.24137931" id="Fill-12" fill="#23C38E" mask="url(#mask-6)"></path>
            <path d="M15.6896552,2.24137931 L10.3103448,2.24137931 C9.81544828,2.24137931 9.4137931,1.83972414 9.4137931,1.34482759 C9.4137931,0.849931034 9.81544828,0.448275862 10.3103448,0.448275862 L15.6896552,0.448275862 C16.1845517,0.448275862 16.5862069,0.849931034 16.5862069,1.34482759 C16.5862069,1.83972414 16.1845517,2.24137931 15.6896552,2.24137931 Z" id="Stroke-13" stroke="#23C38E" stroke-linecap="round" stroke-linejoin="round" mask="url(#mask-6)"></path>
        </g>
        <g id="Path" fill-rule="nonzero">
            <use fill="black" fill-opacity="1" filter="url(#filter-8)" xlink:href="#path-7"></use>
            <use fill="#FFFFFF" xlink:href="#path-7"></use>
        </g>
        <g id="Bell-Shadow" transform="translate(15.000000, 4.000000)">
            <mask id="mask-10" fill="white">
                <use xlink:href="#path-9"></use>
            </mask>
            <g id="Mask"></g>
            <g id="Bell-Icon" opacity="0.149999991" mask="url(#mask-10)">
                <g transform="translate(-13.000000, 2.000000)">
                    <path d="M24.6551724,22.4137931 L1.34482759,22.4137931 C0.849931034,22.4137931 0.448275862,22.0121379 0.448275862,21.5172414 C0.448275862,21.0223448 0.849931034,20.6206897 1.34482759,20.6206897 L24.6551724,20.6206897 C25.150069,20.6206897 25.5517241,21.0223448 25.5517241,21.5172414 C25.5517241,22.0121379 25.150069,22.4137931 24.6551724,22.4137931" id="Fill-1" stroke="none" fill="#000000" fill-rule="evenodd"></path>
                    <path d="M24.6551724,22.4137931 L1.34482759,22.4137931 C0.849931034,22.4137931 0.448275862,22.0121379 0.448275862,21.5172414 C0.448275862,21.0223448 0.849931034,20.6206897 1.34482759,20.6206897 L24.6551724,20.6206897 C25.150069,20.6206897 25.5517241,21.0223448 25.5517241,21.5172414 C25.5517241,22.0121379 25.150069,22.4137931 24.6551724,22.4137931 Z" id="Stroke-3" stroke="#000000" stroke-width="1" fill="none" stroke-linecap="round" stroke-linejoin="round"></path>
                    <path d="M3.13793103,17.0344828 C2.64303448,17.0344828 2.24137931,16.6328276 2.24137931,16.137931 C2.24137931,10.2054483 7.06751724,5.37931034 13,5.37931034 C18.9324828,5.37931034 23.7586207,10.2054483 23.7586207,16.137931 C23.7586207,16.6328276 23.3569655,17.0344828 22.862069,17.0344828 L3.13793103,17.0344828 Z" id="Fill-5" stroke="none" fill="#000000" fill-rule="evenodd"></path>
                    <path d="M13,4.48275862 C6.57351724,4.48275862 1.34482759,9.71144828 1.34482759,16.137931 C1.34482759,17.1277241 2.14813793,17.9310345 3.13793103,17.9310345 L22.862069,17.9310345 C23.8518621,17.9310345 24.6551724,17.1277241 24.6551724,16.137931 C24.6551724,9.71144828 19.4264828,4.48275862 13,4.48275862 M13,6.27586207 C18.4465517,6.27586207 22.862069,10.6913793 22.862069,16.137931 L3.13793103,16.137931 C3.13793103,10.6913793 7.55344828,6.27586207 13,6.27586207" id="Fill-7" stroke="none" fill="#000000" fill-rule="evenodd"></path>
                    <mask id="mask-12" fill="white">
                        <use xlink:href="#path-11"></use>
                    </mask>
                    <g id="Clip-10" stroke="none" fill="none"></g>
                    <polygon id="Fill-9" stroke="none" fill="#000000" fill-rule="evenodd" mask="url(#mask-12)" points="12.1034483 6.72413793 13.8965517 6.72413793 13.8965517 1.34482759 12.1034483 1.34482759"></polygon>
                    <polygon id="Stroke-11" stroke="#000000" stroke-width="1" fill="none" stroke-linecap="round" stroke-linejoin="round" mask="url(#mask-12)" points="12.1034483 6.72413793 13.8965517 6.72413793 13.8965517 1.34482759 12.1034483 1.34482759"></polygon>
                    <path d="M15.6896552,2.24137931 L10.3103448,2.24137931 C9.81544828,2.24137931 9.4137931,1.83972414 9.4137931,1.34482759 C9.4137931,0.849931034 9.81544828,0.448275862 10.3103448,0.448275862 L15.6896552,0.448275862 C16.1845517,0.448275862 16.5862069,0.849931034 16.5862069,1.34482759 C16.5862069,1.83972414 16.1845517,2.24137931 15.6896552,2.24137931" id="Fill-12" stroke="none" fill="#000000" fill-rule="evenodd" mask="url(#mask-12)"></path>
                    <path d="M15.6896552,2.24137931 L10.3103448,2.24137931 C9.81544828,2.24137931 9.4137931,1.83972414 9.4137931,1.34482759 C9.4137931,0.849931034 9.81544828,0.448275862 10.3103448,0.448275862 L15.6896552,0.448275862 C16.1845517,0.448275862 16.5862069,0.849931034 16.5862069,1.34482759 C16.5862069,1.83972414 16.1845517,2.24137931 15.6896552,2.24137931 Z" id="Stroke-13" stroke="#000000" stroke-width="1" fill="none" stroke-linecap="round" stroke-linejoin="round" mask="url(#mask-12)"></path>
                </g>
            </g>
        </g>
    </g>
</svg>