<?xml version="1.0" encoding="UTF-8"?>
<svg width="24px" height="24px" viewBox="0 0 24 24" version="1.1" xmlns="http://www.w3.org/2000/svg" xmlns:xlink="http://www.w3.org/1999/xlink">
    <title>icons / nav / banks / focused</title>
    <g id="icons-/-nav-/-banks-/-focused" stroke="none" stroke-width="1" fill="none" fill-rule="evenodd" stroke-linejoin="round">
        <g id="Bank-Icon" transform="translate(4.500000, 4.500000)" fill="#73809D" fill-rule="nonzero" stroke="#73809D" stroke-width="0.4">
            <path d="M7.02272727,0.127840909 L0.136363636,7.01420455 C-8.70414851e-14,7.15056818 -0.0340909091,7.35511364 0.0340909091,7.52556818 C0.102272727,7.69602273 0.272727273,7.83238636 0.477272727,7.83238636 L14.224522,7.85511364 C14.4972493,7.85511364 14.724522,7.62784091 14.724522,7.35511364 C14.724522,7.35511364 14.7017947,7.37784091 14.7017947,7.37784091 C14.7017947,7.10511364 14.4972493,6.90056818 14.224522,6.90056818 L1.63636364,6.87784091 L7.36363636,1.15056818 L13.5681818,7.35511364 L13.9090909,7.69602273 C14.0113636,7.79829545 14.1136364,7.83238636 14.25,7.83238636 C14.3863636,7.83238636 14.4886364,7.79829545 14.5909091,7.69602273 C14.7613636,7.52556818 14.7613636,7.21875 14.5909091,7.01420455 L7.70454545,0.127840909 C7.5,-0.0426136364 7.22727273,-0.0426136364 7.02272727,0.127840909 Z" id="Path"></path>
            <path d="M1.85227273,7.35511364 C1.57954545,7.35511364 1.375,7.55965909 1.375,7.83238636 L1.36363636,13.7982955 L0.477272727,13.7982955 C0.204545455,13.7982955 8.2600593e-14,14.0028409 8.2600593e-14,14.2755682 C8.2600593e-14,14.5482955 0.204545455,14.7528409 0.477272727,14.7528409 L1.84090909,14.7528409 L12.8522727,14.7528409 L14.2159091,14.7528409 C14.4886364,14.7528409 14.6931818,14.5482955 14.6931818,14.2755682 C14.6931818,14.0028409 14.4886364,13.7982955 14.2159091,13.7982955 L13.3295455,13.7982955 L13.3409091,7.83238636 C13.3409091,7.55965909 13.1363636,7.35511364 12.8636364,7.35511364 C12.5909091,7.35511364 12.3863636,7.55965909 12.3863636,7.83238636 L12.375,13.7982955 L9.64772727,13.7982955 L9.65909091,7.83238636 C9.65909091,7.55965909 9.45454545,7.35511364 9.18181818,7.35511364 C8.90909091,7.35511364 8.70454545,7.55965909 8.70454545,7.83238636 L8.69318182,13.7982955 L5.96590909,13.7982955 L5.97727273,7.83238636 C5.97727273,7.55965909 5.77272727,7.35511364 5.5,7.35511364 C5.22727273,7.35511364 5.02272727,7.55965909 5.02272727,7.83238636 L5.01136364,13.7982955 L2.28409091,13.7982955 L2.29545455,7.83238636 C2.32954545,7.55965909 2.125,7.35511364 1.85227273,7.35511364 Z" id="Path"></path>
        </g>
    </g>
</svg>