<?xml version="1.0" encoding="UTF-8"?>
<svg width="24px" height="24px" viewBox="0 0 24 24" version="1.1" xmlns="http://www.w3.org/2000/svg" xmlns:xlink="http://www.w3.org/1999/xlink">
    <title>icons / nav / customer / focused</title>
    <g id="icons-/-nav-/-customer-/-focused" stroke="none" stroke-width="1" fill="none" fill-rule="evenodd">
        <g id="Customer-Service-Icon" transform="translate(5.000000, 4.500000)" fill="#73809D" fill-rule="nonzero" stroke="#73809D" stroke-width="0.35">
            <path d="M7,0 C3.13581153,0.00435452299 0.00435364675,3.13644266 0,7.00140886 L0,10.5021133 C0.000682349515,10.7979174 0.09037343,11.0866665 0.2574,11.33078 C0.4264,11.792723 1.5268,14.1983071 6.1242,14.4742626 C6.33827534,14.8724102 6.79306097,15.0770632 7.2329502,14.9731989 C7.67283944,14.8693345 7.9881074,14.4828605 8.00156159,14.0309897 C8.01501577,13.579119 7.72330021,13.1745651 7.29037005,13.0447026 C6.85743989,12.9148401 6.39128417,13.0920616 6.1539,13.4767619 C3.8342,13.3367337 2.58015,12.6303415 1.9112,12.0024152 L2,12.0024152 C2.82805016,12.0015057 3.49909064,11.3303301 3.5,10.5021133 L3.5,8.50171076 C3.49909064,7.67349394 2.82805016,7.0023184 2,7.00140886 L1,7.00140886 C1,3.68703343 3.6862915,1.00020127 7,1.00020127 C10.3137085,1.00020127 13,3.68703343 13,7.00140886 L12,7.00140886 C11.1719498,7.0023184 10.5009094,7.67349394 10.5,8.50171076 L10.5,10.5021133 C10.5009094,11.3303301 11.1719498,12.0015057 12,12.0024152 L12.5,12.0024152 C12.7508795,12.0022723 12.997696,11.939038 13.21775,11.8185282 C13.3765498,11.7338184 13.477581,11.5702839 13.482286,11.3903363 C13.4869909,11.2103887 13.3946435,11.0417961 13.2404874,10.9489004 C13.0863313,10.8560046 12.8941547,10.8531408 12.7373,10.9414017 C12.6646421,10.9814879 12.5829782,11.0024157 12.5,11.0022139 L12,11.0022139 C11.7239605,11.0019658 11.5002481,10.7782084 11.5,10.5021133 L11.5,8.50171076 C11.5002481,8.22561566 11.7239605,8.00185828 12,8.00161013 L13,8.00161013 L13,9.71850561 C13,9.99470356 13.2238576,10.2186062 13.5,10.2186062 C13.7761424,10.2186062 14,9.99470356 14,9.71850561 L14,7.00140886 C13.9956464,3.13644266 10.8641885,0.00435452299 7,0 Z M2,8.00161013 C2.27603954,8.00185828 2.4997519,8.22561566 2.5,8.50171076 L2.5,10.5021133 C2.4997519,10.7782084 2.27603954,11.0019658 2,11.0022139 L1.5,11.0022139 C1.35556402,11.0016996 1.21842913,10.938645 1.124,10.8293291 C1.1172,10.818827 1.10985,10.808825 1.10255,10.798823 C1.0361439,10.7141788 1.00003558,10.609706 1,10.5021133 L1,8.00161013 L2,8.00161013 Z"></path>
        </g>
    </g>
</svg>