<?xml version="1.0" encoding="UTF-8"?>
<svg width="24px" height="24px" viewBox="0 0 24 24" version="1.1" xmlns="http://www.w3.org/2000/svg" xmlns:xlink="http://www.w3.org/1999/xlink">
    <title>icons / nav / programs / focused</title>
    <g id="icons-/-nav-/-programs-/-focused" stroke="none" stroke-width="1" fill="none" fill-rule="evenodd">
        <path d="M8.43975822,6.04748664 C8.79184985,6.04748664 9.07727651,6.3329133 9.07727651,6.68500493 L9.077,16.3304866 L11.2983631,14.1133629 C11.5474538,13.864697 11.9508593,13.864697 12.1999501,14.1133629 C12.4236377,14.3366691 12.4462848,14.6851237 12.2676994,14.9337685 L12.2007176,15.0126449 C12.200462,15.0129009 12.2002061,15.0131568 12.1999501,15.0134124 L8.89413087,18.3135937 C8.79449458,18.4130601 8.67016791,18.4727399 8.54090318,18.4926332 L8.44333751,18.5000931 C8.28021344,18.5000931 8.11708937,18.4379266 7.992544,18.3135937 L7.991,18.3124866 L4.68672479,15.0134124 C4.43818299,14.7652945 4.43783938,14.3626723 4.68595731,14.1141305 L4.68672479,14.113363 C4.93581553,13.864697 5.33922106,13.864697 5.5883118,14.113363 L7.802,16.3234866 L7.80223992,6.68500493 C7.80223992,6.3329133 8.08766658,6.04748664 8.43975822,6.04748664 Z M15.5566633,5.49990688 L15.6542284,5.50736696 C15.7834932,5.52726023 15.9078198,5.58694006 16.0074561,5.68640644 L19.3132752,8.98658773 C19.561817,9.23470566 19.5621606,9.63732791 19.3140427,9.8858697 L19.3132752,9.88663717 C19.0641845,10.1353031 18.6607789,10.1353031 18.4116882,9.88663717 L16.1973259,7.676 L16.1977601,17.3149952 C16.1977601,17.6670869 15.9123334,17.9525135 15.5602418,17.9525135 C15.2081502,17.9525135 14.9227235,17.6670869 14.9227235,17.3149952 L14.9223259,7.669 L12.7016377,9.88663708 C12.452547,10.135303 12.0491415,10.135303 11.8000507,9.88663708 C11.5515089,9.63851916 11.5511653,9.2358969 11.7992833,8.98735511 L11.8000507,8.98658764 L15.1058698,5.68640634 C15.2304152,5.56207337 15.3935392,5.49990688 15.5566633,5.49990688 Z" id="Programs-Icon" fill="#73809D" transform="translate(12.000000, 12.000000) rotate(-90.000000) translate(-12.000000, -12.000000) "></path>
    </g>
</svg>