<?xml version="1.0" encoding="UTF-8"?>
<svg width="24px" height="24px" viewBox="0 0 24 24" version="1.1" xmlns="http://www.w3.org/2000/svg" xmlns:xlink="http://www.w3.org/1999/xlink">
    <title>icons / nav / users / focused</title>
    <defs>
        <rect id="path-1" x="0" y="0" width="7" height="14"></rect>
    </defs>
    <g id="icons-/-nav-/-users-/-focused" stroke="none" stroke-width="1" fill="none" fill-rule="evenodd">
        <g id="Icon" transform="translate(5.500000, 4.000000)" stroke="#73809D" stroke-width="1.25">
            <path d="M3.5,8 C5.43299662,8 7,9.56700338 7,11.5 L7,15 L7,15 L0,15 L0,11.5 C-6.80813023e-16,9.56700338 1.56700338,8 3.5,8 Z" id="Rectangle" stroke-linejoin="round"></path>
            <ellipse id="Oval" cx="3.5" cy="3.17383731" rx="2.48611111" ry="2.54883731"></ellipse>
        </g>
        <g id="Small-Icon" transform="translate(12.000000, 5.000000)">
            <mask id="mask-2" fill="white">
                <use xlink:href="#path-1"></use>
            </mask>
            <g id="Mask"></g>
            <g mask="url(#mask-2)" stroke="#73809D" stroke-width="1.25">
                <g transform="translate(-0.500000, 0.500000)">
                    <path d="M3.5,6.5 C5.15685425,6.5 6.5,7.84314575 6.5,9.5 L6.5,12.5 L6.5,12.5 L0.5,12.5 L0.5,9.5 C0.5,7.84314575 1.84314575,6.5 3.5,6.5 Z" id="Rectangle" stroke-linejoin="round"></path>
                    <circle id="Oval" cx="3.5" cy="2.5" r="1.875"></circle>
                </g>
            </g>
        </g>
    </g>
</svg>