<?xml version="1.0" encoding="UTF-8"?>
<svg width="30px" height="30px" viewBox="0 0 30 30" version="1.1" xmlns="http://www.w3.org/2000/svg" xmlns:xlink="http://www.w3.org/1999/xlink">
    <title>components / image / small icon / activity / block released</title>
    <g id="components-/-image-/-small-icon-/-activity-/-block-released" stroke="none" stroke-width="1" fill="none" fill-rule="evenodd">
        <g id="noun-hand-palm-4161376" opacity="0.200000003" transform="translate(3.000000, 3.000000)" fill="#000000" fill-rule="nonzero">
            <path d="M7.23669585,14.7727319 C7.0063846,14.7727319 6.78548932,14.6829774 6.62264369,14.5230957 C6.45972396,14.3632957 6.36827845,14.1465049 6.36827845,13.9204596 L6.36827845,3.6931915 C6.36827845,2.7797601 6.86480478,1.93564685 7.67090454,1.47887433 C8.47700431,1.02219272 9.47005697,1.02219272 10.2761567,1.47887433 C11.0822565,1.93564685 11.5787828,2.77973737 11.5787828,3.6931915 L11.5787828,12.7840965 C11.5787828,13.0885963 11.4132416,13.3699371 11.1445741,13.5222098 C10.8758974,13.6744642 10.5448335,13.6744642 10.2761567,13.5222098 C10.00748,13.3699553 9.84194803,13.0886191 9.84194803,12.7840965 L9.84194803,3.6931915 C9.84194803,3.38869164 9.67640684,3.10735086 9.40773934,2.9550782 C9.13906257,2.80282373 8.8079987,2.80282373 8.53932194,2.9550782 C8.27064518,3.10733268 8.10511324,3.38866891 8.10511324,3.6931915 L8.10511324,13.9204596 C8.10511324,14.146489 8.01365847,14.3632776 7.850748,14.5230957 C7.68792089,14.6829865 7.4670233,14.7727319 7.23669585,14.7727319 Z" id="Path"></path>
            <path d="M14.184035,13.6363688 C13.9537238,13.6363688 13.7328285,13.5466143 13.5699829,13.3867326 C13.4070631,13.2269326 13.3156176,13.0101418 13.3156176,12.7840965 L13.3156176,2.55682838 C13.3156176,2.25232852 13.1500764,1.97098774 12.8814089,1.81871508 C12.6127322,1.66646061 12.2816683,1.66646061 12.0129915,1.81871508 C11.7443148,1.97096956 11.5787828,2.25230579 11.5787828,2.55682838 L11.5787828,4.54546384 C11.5787828,4.8499637 11.4132416,5.13130449 11.1445741,5.28357714 C10.8758974,5.43583162 10.5448335,5.43583162 10.2761567,5.28357714 C10.00748,5.13132267 9.84194803,4.84998643 9.84194803,4.54546384 L9.84194803,2.55682838 C9.84194803,1.64339698 10.3384744,0.799283728 11.1445741,0.342511208 C11.9506739,-0.114170403 12.9437266,-0.114170403 13.7498263,0.342511208 C14.5559261,0.799283728 15.0524524,1.64337425 15.0524524,2.55682838 L15.0524524,12.7840965 C15.0524524,13.0101259 14.9609976,13.2269144 14.7980872,13.3867326 C14.6352601,13.5466234 14.4143625,13.6363688 14.184035,13.6363688 Z" id="Path"></path>
            <path d="M17.6577046,13.6363688 C17.4273934,13.6363688 17.2064981,13.5466143 17.0436524,13.3867326 C16.8807327,13.2269326 16.7892872,13.0101418 16.7892872,12.7840965 L16.7892872,4.82955462 C16.7892872,4.52505476 16.623746,4.24371398 16.3550785,4.09144132 C16.0864017,3.93918685 15.7553379,3.93918685 15.4866611,4.09144132 C15.2179843,4.2436958 15.0524524,4.52503203 15.0524524,4.82955462 L15.0524524,5.68182696 C15.0524524,5.98632682 14.8869112,6.26766761 14.6182437,6.41994026 C14.3495669,6.57219474 14.0185031,6.57219474 13.7498263,6.41994026 C13.4811496,6.26768579 13.3156176,5.98634955 13.3156176,5.68182696 L13.3156176,4.82955462 C13.3156176,3.91612322 13.8121439,3.07200997 14.6182437,2.61523745 C15.4243435,2.15855584 16.4173961,2.15855584 17.2234959,2.61523745 C18.0295957,3.07200997 18.526122,3.91610049 18.526122,4.82955462 L18.526122,12.7840965 C18.526122,13.0101259 18.4346672,13.2269144 18.2717568,13.3867326 C18.1089296,13.5466234 17.8880321,13.6363688 17.6577046,13.6363688 Z" id="Path"></path>
            <path d="M16.4998147,25 L10.1082627,25 C9.17859293,24.9881925 8.26693993,24.7466365 7.45762123,24.2978412 C6.64809411,23.8489778 5.96693067,23.2072054 5.47681904,22.4318193 L0.451577046,14.4772775 C0.159835116,14.0629595 0.00243156871,13.5718234 0,13.0681872 C0,12.3900966 0.274466213,11.7397106 0.763026261,11.2602108 C1.25160947,10.780711 1.91431615,10.5113702 2.60525219,10.5113702 C3.07366495,10.5063986 3.5344588,10.6282906 3.93682553,10.8636428 L7.66523088,13.136369 C7.92793294,13.298744 8.08234913,13.5863916 8.0703997,13.8908005 C8.05845908,14.1952322 7.88188134,14.4703457 7.60724376,14.6123911 C7.33260618,14.7544365 7.00162105,14.7419183 6.73891899,14.5795434 L3.04525034,12.3068171 C2.91236395,12.2290467 2.75985364,12.1897195 2.60525219,12.1931808 C2.37494095,12.1931808 2.15404567,12.2829353 1.99120004,12.4428171 C1.8282803,12.602617 1.73683479,12.8194078 1.73683479,13.0454532 C1.73656341,13.1931804 1.77654578,13.3384303 1.85262378,13.4659075 L6.94733917,21.5909038 C7.63989625,22.6467443 8.82891019,23.2879031 10.1083785,23.2954485 L16.4999305,23.2954485 C17.4979853,23.2954485 18.4551433,22.906335 19.160993,22.2137672 C19.8666806,21.5211084 20.2631652,20.5817452 20.2631652,19.6021775 L20.2631652,5.96582002 C20.2631652,5.66132015 20.097624,5.37997937 19.8289565,5.22770671 C19.5602797,5.07545224 19.2292159,5.07545224 18.9605391,5.22770671 C18.6918624,5.37996119 18.5263304,5.66129743 18.5263304,5.96582002 C18.5263304,6.2703426 18.3607892,6.55166066 18.0921217,6.70393332 C17.823445,6.85618779 17.4923811,6.85618779 17.2237043,6.70393332 C16.9550276,6.55167884 16.7894956,6.2703426 16.7894956,5.96582002 C16.7894956,5.05238861 17.286022,4.20827536 18.0921217,3.75150284 C18.8982215,3.29482123 19.8912741,3.29482123 20.6973739,3.75150284 C21.5034737,4.20827536 22,5.05236589 22,5.96582002 L22,19.6021775 C21.9969244,21.0328359 21.4165393,22.4039944 20.3857394,23.4155848 C19.3549396,24.4271753 17.957876,24.9968114 16.5000926,25 L16.4998147,25 Z" id="Path"></path>
        </g>
        <g id="components-/-image-/-med-icon-/-error" transform="translate(11.833333, 16.833333)">
            <g id="cancel" transform="translate(0.000000, 0.000000)">
                <path d="M4.16666667,0 C1.8766276,0 0,1.8766276 0,4.16666667 C0,6.45670573 1.8766276,8.33333333 4.16666667,8.33333333 C6.45670573,8.33333333 8.33333333,6.45670573 8.33333333,4.16666667 C8.33333333,1.8766276 6.45670573,0 4.16666667,0 Z" id="Path" fill="#EE0351"></path>
                <polygon id="Path" fill="#FFFFFF" fill-rule="nonzero" points="4.85512695 4.16666667 6.23697917 5.54851888 5.54851888 6.23697917 4.16666667 4.85512695 2.78481445 6.23697917 2.09635417 5.54851888 3.47820638 4.16666667 2.09635417 2.78481445 2.78481445 2.09635417 4.16666667 3.47820638 5.54851888 2.09635417 6.23697917 2.78481445"></polygon>
                <path d="M8.33333333,4.16666667 C8.33333333,6.45670573 6.45670573,8.33333333 4.16666667,8.33333333 L4.16666667,0 C6.45670573,0 8.33333333,1.8766276 8.33333333,4.16666667 Z" id="Path" fill-opacity="0.1" fill="#000000" fill-rule="nonzero"></path>
            </g>
        </g>
    </g>
</svg>