<?xml version="1.0" encoding="UTF-8"?>
<svg width="30px" height="30px" viewBox="0 0 30 30" version="1.1" xmlns="http://www.w3.org/2000/svg" xmlns:xlink="http://www.w3.org/1999/xlink">
    <title>components / image / small icon / activity / card order placed</title>
    <g id="components-/-image-/-small-icon-/-activity-/-card-order-placed" stroke="none" stroke-width="1" fill="none" fill-rule="evenodd">
        <g id="Group-5" transform="translate(1.500000, 6.500000)" stroke="#FFFFFF">
            <line x1="6.26282308e-05" y1="5.31417558" x2="25" y2="5.31417558" id="Stroke-3" stroke-width="3"></line>
            <path d="M24.9999374,13.748768 C24.9999374,15.5440369 23.4768188,17 21.5973456,17 L3.40196552,17 C1.52311859,17 0,15.5440369 0,13.748768 L0,3.25123205 C0,1.45596311 1.52311859,0 3.40196552,0 L21.5973456,0 C23.4768188,0 24.9999374,1.45596311 24.9999374,3.25123205 C24.9999374,5.50529194 24.9999374,7.42303811 24.9999374,9.00447057 C24.9999374,10.585903 24.9999374,12.1673355 24.9999374,13.748768 Z" id="Stroke-1" stroke-width="1.5" stroke-linecap="round"></path>
        </g>
        <g id="components-/-image-/-med-icon-/-success" transform="translate(20.833333, 1.833333)">
            <g id="checked" transform="translate(0.000000, 0.000000)">
                <path d="M4.16666667,0 C1.8766276,0 0,1.8766276 0,4.16666667 C0,6.45670573 1.8766276,8.33333333 4.16666667,8.33333333 C6.45670573,8.33333333 8.33333333,6.45670573 8.33333333,4.16666667 C8.33333333,1.8766276 6.45670573,0 4.16666667,0 Z" id="Path" fill="#23C38E"></path>
                <polygon id="Path" fill="#FFFFFF" fill-rule="nonzero" points="6.53971354 3.45865885 3.67838542 6.3199707 1.62270508 4.26918945 2.31609701 3.57583008 3.67838542 4.94301758 4.16666667 4.45473633 5.85123698 2.77018229"></polygon>
                <path d="M8.33333333,4.16666667 C8.33333333,6.45670573 6.45670573,8.33333333 4.16666667,8.33333333 L4.16666667,0 C6.45670573,0 8.33333333,1.8766276 8.33333333,4.16666667 Z" id="Path" fill-opacity="0.1" fill="#000000"></path>
            </g>
        </g>
    </g>
</svg>