<?xml version="1.0" encoding="UTF-8"?>
<svg width="30px" height="30px" viewBox="0 0 30 30" version="1.1" xmlns="http://www.w3.org/2000/svg" xmlns:xlink="http://www.w3.org/1999/xlink">
    <title>components / image / small icon / activity / email address deleted</title>
    <g id="components-/-image-/-small-icon-/-activity-/-email-address-deleted" stroke="none" stroke-width="1" fill="none" fill-rule="evenodd">
        <g id="noun-email-1002247" opacity="0.200000003" transform="translate(4.000000, 4.000000)" fill="#131415" fill-rule="nonzero">
            <path d="M2.10913043,22 L19.8908696,22 C20.4504746,21.9993872 20.9868841,21.7802312 21.3824058,21.3905617 C21.7778478,21.0009707 22,20.4727961 22,19.9221877 L22,8.81040112 C22,8.63705302 21.9219239,8.47258038 21.7871739,8.36090167 L18.8434783,5.91357892 L18.8434783,1.64723647 C18.8434783,1.21038543 18.6670877,0.791359853 18.3531612,0.482444185 C18.0392228,0.173587348 17.6135109,0 17.1695652,0 L4.9476087,0 C4.50360326,0 4.07787138,0.173579504 3.7639529,0.482444185 C3.45001449,0.791379462 3.27369565,1.21038543 3.27369565,1.64723647 L3.27369565,5.82415751 L0.212826087,8.36090167 C0.0780820652,8.47258626 0,8.63704909 0,8.81040112 L0,19.9221877 C0,20.4727961 0.222152174,21.0009707 0.617594203,21.3905617 C1.01311594,21.7802312 1.54952536,21.9993921 2.10913043,22 Z M19.8884783,20.8234614 L2.10913043,20.8234614 C1.86665217,20.8227897 1.6342971,20.7275745 1.46303986,20.5585897 C1.29178659,20.3896832 1.19565217,20.1608017 1.19565217,19.9221877 L1.19565217,9.93287511 L8.01086957,14.6769161 L3.17326087,18.3196619 C3.00239819,18.4457481 2.91288768,18.6520311 2.93849457,18.8607007 C2.96402572,19.0693702 3.10071667,19.2487621 3.29719022,19.3313397 C3.49358605,19.4139152 3.71979348,19.387028 3.89065217,19.2609438 L9.03434783,15.3875849 L10.7082609,16.5641824 C10.8092995,16.6345782 10.9300344,16.6724196 11.0538043,16.6724196 C11.1775723,16.6724196 11.298375,16.6345782 11.3993478,16.5641824 L13.0732609,15.3875849 L18.2193478,19.2538842 C18.3902105,19.3799704 18.6164239,19.4068576 18.8128895,19.3242801 C19.0092853,19.2417045 19.1459783,19.0623106 19.1715851,18.8536411 C19.1971163,18.6449715 19.1075998,18.4386944 18.9367391,18.3126023 L14.1086957,14.6769161 L20.8043478,10.0175901 L20.8043478,19.9245409 C20.8037251,20.1627627 20.7072788,20.3910422 20.5361033,20.5594917 C20.3649297,20.7279373 20.1329692,20.8228534 19.8908696,20.8234614 L19.8884783,20.8234614 Z M20.4695652,8.8079891 L18.8435181,9.93985626 L18.8435181,7.45252919 L20.4695652,8.8079891 Z M4.9476087,1.17893106 L17.1719565,1.17893106 C17.2988391,1.17893106 17.4205127,1.22849131 17.5101866,1.31673612 C17.5998605,1.40498093 17.6502234,1.52469972 17.6502234,1.64957593 L17.6502234,10.7658532 L11.0597886,15.3569365 L4.47174511,10.7658532 L4.47174511,1.64722274 C4.47236784,1.52320544 4.5227317,1.40447107 4.6118596,1.31675573 C4.70098949,1.22904627 4.82163678,1.1795625 4.94767844,1.17893106 L4.9476087,1.17893106 Z M3.27369565,9.93987587 L1.58063225,8.76327839 L3.27369565,7.35136142 L3.27369565,9.93987587 Z M11,8.67150379 C10.6594384,8.67150379 10.3328261,8.53836982 10.0919819,8.30136583 C9.85113768,8.06443832 9.71584964,7.7430115 9.71584964,7.40789693 C9.71584964,7.07268431 9.85113967,6.7512771 10.0919819,6.51434959 C10.3328261,6.27734364 10.6594583,6.14421163 11,6.14421163 C11.3405417,6.14421163 11.6671739,6.2773456 11.9080181,6.51434959 C12.1488623,6.7512771 12.2841504,7.07270392 12.2841504,7.40789693 C12.2841504,7.74303111 12.1488603,8.06443832 11.9080181,8.30136583 C11.6671739,8.53837179 11.3405417,8.67150379 11,8.67150379 Z" id="Shape"></path>
        </g>
        <g id="components-/-image-/-med-icon-/-error" transform="translate(10.833333, 7.233333)">
            <g id="cancel" transform="translate(0.000000, 0.000000)">
                <path d="M4.16666667,0 C1.8766276,0 0,1.8766276 0,4.16666667 C0,6.45670573 1.8766276,8.33333333 4.16666667,8.33333333 C6.45670573,8.33333333 8.33333333,6.45670573 8.33333333,4.16666667 C8.33333333,1.8766276 6.45670573,0 4.16666667,0 Z" id="Path" fill="#EE0351"></path>
                <polygon id="Path" fill="#FFFFFF" fill-rule="nonzero" points="4.85512695 4.16666667 6.23697917 5.54851888 5.54851888 6.23697917 4.16666667 4.85512695 2.78481445 6.23697917 2.09635417 5.54851888 3.47820638 4.16666667 2.09635417 2.78481445 2.78481445 2.09635417 4.16666667 3.47820638 5.54851888 2.09635417 6.23697917 2.78481445"></polygon>
                <path d="M8.33333333,4.16666667 C8.33333333,6.45670573 6.45670573,8.33333333 4.16666667,8.33333333 L4.16666667,0 C6.45670573,0 8.33333333,1.8766276 8.33333333,4.16666667 Z" id="Path" fill-opacity="0.1" fill="#000000" fill-rule="nonzero"></path>
            </g>
        </g>
    </g>
</svg>