<?xml version="1.0" encoding="UTF-8"?>
<svg width="30px" height="30px" viewBox="0 0 30 30" version="1.1" xmlns="http://www.w3.org/2000/svg" xmlns:xlink="http://www.w3.org/1999/xlink">
    <title>components / image / small icon / activity / email address updated</title>
    <g id="components-/-image-/-small-icon-/-activity-/-email-address-updated" stroke="none" stroke-width="1" fill="none" fill-rule="evenodd">
        <g id="noun-email-1002247" transform="translate(4.000000, 4.000000)" fill="#FFFFFF" fill-rule="nonzero">
            <path d="M2.10913043,22 L19.8908696,22 C20.4504746,21.9993872 20.9868841,21.7802312 21.3824058,21.3905617 C21.7778478,21.0009707 22,20.4727961 22,19.9221877 L22,8.81040112 C22,8.63705302 21.9219239,8.47258038 21.7871739,8.36090167 L18.8434783,5.91357892 L18.8434783,1.64723647 C18.8434783,1.21038543 18.6670877,0.791359853 18.3531612,0.482444185 C18.0392228,0.173587348 17.6135109,0 17.1695652,0 L4.9476087,0 C4.50360326,0 4.07787138,0.173579504 3.7639529,0.482444185 C3.45001449,0.791379462 3.27369565,1.21038543 3.27369565,1.64723647 L3.27369565,5.82415751 L0.212826087,8.36090167 C0.0780820652,8.47258626 0,8.63704909 0,8.81040112 L0,19.9221877 C0,20.4727961 0.222152174,21.0009707 0.617594203,21.3905617 C1.01311594,21.7802312 1.54952536,21.9993921 2.10913043,22 Z M19.8884783,20.8234614 L2.10913043,20.8234614 C1.86665217,20.8227897 1.6342971,20.7275745 1.46303986,20.5585897 C1.29178659,20.3896832 1.19565217,20.1608017 1.19565217,19.9221877 L1.19565217,9.93287511 L8.01086957,14.6769161 L3.17326087,18.3196619 C3.00239819,18.4457481 2.91288768,18.6520311 2.93849457,18.8607007 C2.96402572,19.0693702 3.10071667,19.2487621 3.29719022,19.3313397 C3.49358605,19.4139152 3.71979348,19.387028 3.89065217,19.2609438 L9.03434783,15.3875849 L10.7082609,16.5641824 C10.8092995,16.6345782 10.9300344,16.6724196 11.0538043,16.6724196 C11.1775723,16.6724196 11.298375,16.6345782 11.3993478,16.5641824 L13.0732609,15.3875849 L18.2193478,19.2538842 C18.3902105,19.3799704 18.6164239,19.4068576 18.8128895,19.3242801 C19.0092853,19.2417045 19.1459783,19.0623106 19.1715851,18.8536411 C19.1971163,18.6449715 19.1075998,18.4386944 18.9367391,18.3126023 L14.1086957,14.6769161 L20.8043478,10.0175901 L20.8043478,19.9245409 C20.8037251,20.1627627 20.7072788,20.3910422 20.5361033,20.5594917 C20.3649297,20.7279373 20.1329692,20.8228534 19.8908696,20.8234614 L19.8884783,20.8234614 Z M20.4695652,8.8079891 L18.8435181,9.93985626 L18.8435181,7.45252919 L20.4695652,8.8079891 Z M4.9476087,1.17893106 L17.1719565,1.17893106 C17.2988391,1.17893106 17.4205127,1.22849131 17.5101866,1.31673612 C17.5998605,1.40498093 17.6502234,1.52469972 17.6502234,1.64957593 L17.6502234,10.7658532 L11.0597886,15.3569365 L4.47174511,10.7658532 L4.47174511,1.64722274 C4.47236784,1.52320544 4.5227317,1.40447107 4.6118596,1.31675573 C4.70098949,1.22904627 4.82163678,1.1795625 4.94767844,1.17893106 L4.9476087,1.17893106 Z M3.27369565,9.93987587 L1.58063225,8.76327839 L3.27369565,7.35136142 L3.27369565,9.93987587 Z M11,12.3355068 L11.1530375,12.3355068 C11.3666408,12.3355068 11.5639632,12.2232829 11.6707549,12.041279 C11.7775466,11.859275 11.7775545,11.6349802 11.6707549,11.4529802 C11.5639553,11.2709802 11.3666208,11.1588309 11.1530375,11.1588309 L11,11.1588309 C9.98907609,11.1588309 9.01954167,10.763651 8.30480072,10.0602222 C7.58990036,9.35679338 7.18832065,8.40272971 7.18832065,7.40797537 C7.18832065,6.41322103 7.58990036,5.45900048 8.30480072,4.75553246 C9.01962138,4.05210366 9.98913587,3.65692379 11,3.65692379 C12.0108641,3.65692379 12.9804583,4.05210366 13.6951993,4.75553246 C14.4100996,5.45896126 14.8116793,6.41310337 14.8116793,7.40797537 L14.8116793,8.41275039 C14.7979792,8.63757856 14.6681393,8.83979645 14.4676902,8.94849445 C14.2672391,9.05719244 14.0241431,9.05719244 13.823712,8.94849445 C13.6232609,8.83979645 13.493433,8.63757856 13.4797228,8.41275039 L13.4797228,7.40797537 C13.4846268,6.66371864 13.1451594,5.95776015 12.5572174,5.4895724 C11.9693551,5.02138466 11.1969239,4.84191432 10.45825,5.00185314 C9.71969565,5.16179588 9.09516667,5.64384394 8.76130072,6.31158262 C8.42735507,6.97939974 8.42044022,7.7603467 8.74238511,8.43377227 C9.06433438,9.10717823 9.68015504,9.59987842 10.4158398,9.7725441 C11.1515246,9.94520389 11.9269847,9.77905519 12.5231768,9.32106404 C12.7939123,9.79744874 13.2664938,10.1300532 13.8120898,10.2283384 C14.3576061,10.3265411 14.9193036,10.1801567 15.3439395,9.82894234 C15.7684956,9.47780643 16.0117511,8.95851513 16.0073671,8.41273078 L16.0073671,7.40795576 C16.0073671,6.10105011 15.4796858,4.84767965 14.5406804,3.92365843 C13.6015953,2.99953917 12.3279268,2.48040475 10.9999558,2.48040475 C9.67198475,2.48040475 8.39821663,2.99953917 7.45923112,3.92365843 C6.52022569,4.8477777 5.99260431,6.10114816 5.99260431,7.40795576 C5.99260431,8.71478297 6.52022569,9.96803577 7.45923112,10.8922531 C8.39831627,11.8163724 9.67198475,12.3355068 10.9999558,12.3355068 L11,12.3355068 Z M11,8.67150379 C10.6594384,8.67150379 10.3328261,8.53836982 10.0919819,8.30136583 C9.85113768,8.06443832 9.71584964,7.7430115 9.71584964,7.40789693 C9.71584964,7.07268431 9.85113967,6.7512771 10.0919819,6.51434959 C10.3328261,6.27734364 10.6594583,6.14421163 11,6.14421163 C11.3405417,6.14421163 11.6671739,6.2773456 11.9080181,6.51434959 C12.1488623,6.7512771 12.2841504,7.07270392 12.2841504,7.40789693 C12.2841504,7.74303111 12.1488603,8.06443832 11.9080181,8.30136583 C11.6671739,8.53837179 11.3405417,8.67150379 11,8.67150379 Z" id="Shape"></path>
        </g>
        <g id="components-/-image-/-med-icon-/-update" transform="translate(18.833333, 0.833333)">
            <g id="update" transform="translate(0.000000, 0.000000)">
                <path d="M4.16666667,0 C1.8766276,0 0,1.8766276 0,4.16666667 C0,6.45670573 1.8766276,8.33333333 4.16666667,8.33333333 C6.45670573,8.33333333 8.33333333,6.45670573 8.33333333,4.16666667 C8.33333333,1.8766276 6.45670573,0 4.16666667,0 Z" id="Path" fill="#3DC6FD"></path>
                <g id="Group" transform="translate(1.354189, 1.350482)" fill="#FFFFFF" fill-rule="nonzero">
                    <path d="M4.99510233,5.97277504e-05 C5.08011233,-0.00160039725 5.16208983,0.0314072278 5.22225233,0.0915147278 C5.28235983,0.151622228 5.31536733,0.233652228 5.31370733,0.318664728 L5.31370733,1.56866473 C5.31336553,1.65152598 5.28016233,1.73087723 5.22132483,1.78926473 C5.16248733,1.84761473 5.08284983,1.88023098 4.99998733,1.87993848 L3.74936233,1.87993848 C3.66527983,1.88179398 3.58402483,1.84966473 3.52392483,1.79087598 C3.46381733,1.73203848 3.42993108,1.65152598 3.42993108,1.56743848 C3.42993108,1.48335598 3.46381733,1.40278848 3.52392483,1.34400098 C3.58403233,1.28521223 3.66528733,1.25308348 3.74936233,1.25493848 L4.33896233,1.25493848 C3.93588733,0.861288478 3.39233733,0.629938478 2.81308733,0.629938478 C1.60122483,0.629938478 0.623712329,1.60737598 0.623712329,2.81931348 L0.623712329,2.81926465 C0.631231829,2.90647215 0.601788579,2.99280215 0.542608579,3.05730215 C0.483428579,3.12175465 0.399933579,3.15847465 0.312433579,3.15847465 C0.224933579,3.15847465 0.141433579,3.1217559 0.0822585788,3.05730215 C0.0230785788,2.99279965 -0.00636392118,2.90647715 0.00115482882,2.81926465 C0.00115482882,1.26976465 1.26352983,0.00426465275 2.81302983,0.00426465275 C3.51635483,0.00426465275 4.18002983,0.269789653 4.68865483,0.726289653 L4.68865483,0.318577153 L4.68865483,0.318625978 C4.68704345,0.235715978 4.71839108,0.155588478 4.77586233,0.0958259778 C4.83333358,0.0361097278 4.91218733,0.00163597775 4.99504983,0 L4.99510233,5.97277504e-05 Z" id="Path"></path>
                    <path d="M5.30882733,2.49580973 L5.30882733,2.49573792 C5.39339733,2.4947355 5.47478983,2.52808464 5.53441483,2.58809464 C5.59398483,2.64815339 5.62665108,2.72979464 5.62499108,2.81436964 C5.62499108,4.36386964 4.36274108,5.62624464 2.81311608,5.62624464 C2.11081608,5.62624464 1.44649108,5.36174464 0.937491079,4.90666964 L0.937491079,5.31258214 C0.939346579,5.39666464 0.907217329,5.47791964 0.848428579,5.53801964 C0.789639829,5.59812714 0.709078579,5.63201339 0.624991079,5.63201339 C0.540903579,5.63201339 0.460341079,5.59812714 0.401553579,5.53801964 C0.342764829,5.47791214 0.310636079,5.39665714 0.312491079,5.31258214 L0.312491079,4.06258214 C0.312637566,3.97957464 0.345841079,3.90008214 0.404678579,3.84158214 C0.463516079,3.78308589 0.543253579,3.75037089 0.626216079,3.75071339 L1.87377858,3.75071339 C1.98520483,3.75120168 2.08794108,3.81091839 2.14350358,3.90750089 C2.19906983,4.00408339 2.19906983,4.12292589 2.14350358,4.21951339 C2.08793733,4.31609589 1.98520358,4.37581339 1.87377858,4.37630089 L1.28661608,4.37630089 C1.68969108,4.77015089 2.23359108,5.00130089 2.81311608,5.00130089 C4.02497858,5.00130089 4.99999108,4.02630089 4.99999108,2.81442589 L4.99999108,2.81447473 C4.99833095,2.73112473 5.03001983,2.65061223 5.08802858,2.59078723 C5.14603608,2.53097223 5.22552858,2.49679348 5.30882858,2.49586473 L5.30882733,2.49580973 Z" id="Path"></path>
                </g>
                <path d="M8.33333333,4.16666667 C8.33333333,6.45670573 6.45670573,8.33333333 4.16666667,8.33333333 L4.16666667,0 C6.45670573,0 8.33333333,1.8766276 8.33333333,4.16666667 Z" id="Path" fill-opacity="0.1" fill="#000000" fill-rule="nonzero"></path>
            </g>
        </g>
    </g>
</svg>