<?xml version="1.0" encoding="UTF-8"?>
<svg width="30px" height="30px" viewBox="0 0 30 30" version="1.1" xmlns="http://www.w3.org/2000/svg" xmlns:xlink="http://www.w3.org/1999/xlink">
    <title>components / image / small icon / activity / fee plan exception added</title>
    <g id="components-/-image-/-small-icon-/-activity-/-fee-plan-exception-added" stroke="none" stroke-width="1" fill="none" fill-rule="evenodd">
        <g id="noun-money-bag-1825775" transform="translate(5.000000, 1.000000)" fill="#FFFFFF" fill-rule="nonzero">
            <path d="M10.7141597,18.7552704 L10.7141597,17.3332464 L12.1425744,17.3332464 L12.1425744,15.9112224 L10.7141597,15.9112224 L10.7141597,15.2001629 L9.28574494,15.2001629 L9.28574494,15.9112224 C8.42412247,15.9112224 7.14278901,16.4793008 7.14278901,18.0443059 C7.14278901,19.6096908 8.42412247,20.1773894 9.28574494,20.1773894 L9.28574494,21.5996983 L7.85704407,21.5996983 L7.85704407,23.0217223 L9.28574494,23.0217223 L9.28574494,23.7327818 L10.7141597,23.7327818 L10.7141597,23.0217223 C11.5757821,23.0217223 12.8571156,22.4536438 12.8571156,20.8886388 C12.8571156,19.32361 11.5757821,18.7552704 10.7141597,18.7552704 Z M9.28564956,18.7549922 C8.9576736,18.7446992 8.57139451,18.6122794 8.57139451,18.0442176 C8.57139451,17.4713201 8.96430275,17.3414193 9.28564956,17.3331581 L9.28564956,18.7549922 Z M10.7141597,21.5998949 L10.7141597,20.178132 C11.0421356,20.188425 11.4284147,20.3208448 11.4284147,20.8889066 C11.4283216,21.4614243 11.0357926,21.5913488 10.7141597,21.5998711 L10.7141597,21.5998949 Z M11.8764546,6.97395219 L14.2858403,0.977674154 C12.0688192,-0.609883127 10.191983,1.19540749 8.62077928,1.46311653 C7.55117322,0.789707372 6.10074876,-1.68676979e-16 5.17862934,-1.68676979e-16 C4.64293209,-1.68676979e-16 4.28581648,0.266875797 4.28581648,0.977935285 C4.28581648,3.21525751 6.05339088,6.33206866 6.80775467,7.56080832 C2.85029569,9.80843334 0,15.8756915 0,20.8891677 C0,27.1724524 4.47682182,28 10,28 C15.5231782,28 20,27.1724761 20,20.8891677 C20,15.3353879 16.5027661,8.48972221 11.8764308,6.97421332 L11.8764546,6.97395219 Z M6.12435616,2.95752129 C7.06495612,3.11905925 8.42958317,2.96688711 8.99182087,2.83845509 C9.95674361,2.67979194 11.7970479,1.56767335 12.4303939,1.76786581 L10.4605113,6.66620703 C10.4605113,6.66620703 9.07408909,6.59610288 8.0241797,7.00634192 C7.44982831,6.01328478 6.5593285,4.21010458 6.12414155,2.95762574 L6.12435616,2.95752129 Z M10.0000238,26.5772875 C3.51132678,26.5772875 1.42839088,25.1951216 1.42839088,20.8884318 C1.42839088,15.724924 4.80925696,9.29184517 8.85995326,8.2387754 C7.82814288,9.71810578 7.1327976,11.7289088 7.89419592,14.0026469 L9.2488554,13.5525284 C8.64646127,11.7527192 9.20768314,10.2361658 9.9588182,9.14250202 C10.3210607,9.63276345 10.7142551,10.3201787 10.7142551,10.9332429 L12.1426698,10.9332429 C12.1426698,9.85413125 11.5285435,8.84141808 11.0484548,8.21510744 C15.1394506,9.19453829 18.5715853,15.6863004 18.5715853,20.8887404 C18.5715853,25.1957388 16.4886971,26.5775962 9.99995231,26.5775962 L10.0000238,26.5772875 Z" id="Shape"></path>
        </g>
        <g id="components-/-image-/-med-icon-/-error" transform="translate(19.833333, 0.833333)">
            <path d="M4.16666667,4.4408921e-16 C1.8766276,4.4408921e-16 0,1.8766276 0,4.16666667 C0,6.45670573 1.8766276,8.33333333 4.16666667,8.33333333 C6.45670573,8.33333333 8.33333333,6.45670573 8.33333333,4.16666667 C8.33333333,1.8766276 6.45670573,4.4408921e-16 4.16666667,4.4408921e-16 Z" id="Path" fill="#433AA8"></path>
            <polygon id="Path" fill="#FFFFFF" fill-rule="nonzero" transform="translate(4.166667, 4.166667) rotate(45.000000) translate(-4.166667, -4.166667) " points="4.85512695 4.16666667 6.23697917 5.54851888 5.54851888 6.23697917 4.16666667 4.85512695 2.78481445 6.23697917 2.09635417 5.54851888 3.47820638 4.16666667 2.09635417 2.78481445 2.78481445 2.09635417 4.16666667 3.47820638 5.54851888 2.09635417 6.23697917 2.78481445"></polygon>
            <path d="M8.33333333,4.16666667 C8.33333333,6.45670573 6.45670573,8.33333333 4.16666667,8.33333333 L4.16666667,4.4408921e-16 C6.45670573,4.4408921e-16 8.33333333,1.8766276 8.33333333,4.16666667 Z" id="Path" fill-opacity="0.1" fill="#000000"></path>
        </g>
    </g>
</svg>