<?xml version="1.0" encoding="UTF-8"?>
<svg width="30px" height="30px" viewBox="0 0 30 30" version="1.1" xmlns="http://www.w3.org/2000/svg" xmlns:xlink="http://www.w3.org/1999/xlink">
    <title>components / image / small icon / activity / geo address added</title>
    <g id="components-/-image-/-small-icon-/-activity-/-geo-address-added" stroke="none" stroke-width="1" fill="none" fill-rule="evenodd">
        <g id="Group-5" transform="translate(6.500000, 5.000000)">
            <path d="M17,8.302 C17,10.406 16.2075404,12.324 14.8662973,13.782 L8.5,20 L3.09612142,14.704 L1.94531438,13.58 C0.716694772,12.14 0,10.294 0,8.302 C0,7.73 0.0552878824,7.178 0.169959046,6.622 L0.169959046,6.604 C0.868224524,3.394 3.4565165,0.848 6.74307396,0.184 C7.31028668,0.054 7.89592869,0 8.5,0 C9.10407131,0 9.68971332,0.054 10.256926,0.166 C13.5434835,0.848 16.1317755,3.376 16.8116117,6.588 C16.9447121,7.14 17,7.712 17,8.302 Z" id="Stroke-1" stroke="#FFFFFF" stroke-width="1.5" stroke-linecap="round" stroke-linejoin="round"></path>
            <path d="M8.50020477,5.6536 C7.08729222,5.6536 5.94058058,6.7736 5.94058058,8.1536 C5.94058058,9.5336 7.08729222,10.6536 8.50020477,10.6536 C9.91311732,10.6536 11.059829,9.5336 11.059829,8.1536 C11.059829,6.7736 9.91311732,5.6536 8.50020477,5.6536" id="Fill-3" fill="#FFFFFF"></path>
        </g>
        <g id="components-/-image-/-med-icon-/-success" transform="translate(18.833333, 2.833333)">
            <g id="checked" transform="translate(0.000000, 0.000000)">
                <path d="M4.16666667,0 C1.8766276,0 0,1.8766276 0,4.16666667 C0,6.45670573 1.8766276,8.33333333 4.16666667,8.33333333 C6.45670573,8.33333333 8.33333333,6.45670573 8.33333333,4.16666667 C8.33333333,1.8766276 6.45670573,0 4.16666667,0 Z" id="Path" fill="#23C38E"></path>
                <polygon id="Path" fill="#FFFFFF" fill-rule="nonzero" points="6.53971354 3.45865885 3.67838542 6.3199707 1.62270508 4.26918945 2.31609701 3.57583008 3.67838542 4.94301758 4.16666667 4.45473633 5.85123698 2.77018229"></polygon>
                <path d="M8.33333333,4.16666667 C8.33333333,6.45670573 6.45670573,8.33333333 4.16666667,8.33333333 L4.16666667,0 C6.45670573,0 8.33333333,1.8766276 8.33333333,4.16666667 Z" id="Path" fill-opacity="0.1" fill="#000000"></path>
            </g>
        </g>
        <g id="components-/-image-/-med-icon-/-error" transform="translate(18.833333, 2.833333)">
            <path d="M4.16666667,4.4408921e-16 C1.8766276,4.4408921e-16 0,1.8766276 0,4.16666667 C0,6.45670573 1.8766276,8.33333333 4.16666667,8.33333333 C6.45670573,8.33333333 8.33333333,6.45670573 8.33333333,4.16666667 C8.33333333,1.8766276 6.45670573,4.4408921e-16 4.16666667,4.4408921e-16 Z" id="Path" fill="#433AA8"></path>
            <polygon id="Path" fill="#FFFFFF" fill-rule="nonzero" transform="translate(4.166667, 4.166667) rotate(45.000000) translate(-4.166667, -4.166667) " points="4.85512695 4.16666667 6.23697917 5.54851888 5.54851888 6.23697917 4.16666667 4.85512695 2.78481445 6.23697917 2.09635417 5.54851888 3.47820638 4.16666667 2.09635417 2.78481445 2.78481445 2.09635417 4.16666667 3.47820638 5.54851888 2.09635417 6.23697917 2.78481445"></polygon>
            <path d="M8.33333333,4.16666667 C8.33333333,6.45670573 6.45670573,8.33333333 4.16666667,8.33333333 L4.16666667,4.4408921e-16 C6.45670573,4.4408921e-16 8.33333333,1.8766276 8.33333333,4.16666667 Z" id="Path" fill-opacity="0.1" fill="#000000"></path>
        </g>
    </g>
</svg>