<?xml version="1.0" encoding="UTF-8"?>
<svg width="30px" height="30px" viewBox="0 0 30 30" version="1.1" xmlns="http://www.w3.org/2000/svg" xmlns:xlink="http://www.w3.org/1999/xlink">
    <title>components / image / small icon / activity / geo address updated</title>
    <g id="components-/-image-/-small-icon-/-activity-/-geo-address-updated" stroke="none" stroke-width="1" fill="none" fill-rule="evenodd">
        <g id="Group-5" transform="translate(6.500000, 5.000000)">
            <path d="M17,8.302 C17,10.406 16.2075404,12.324 14.8662973,13.782 L8.5,20 L3.09612142,14.704 L1.94531438,13.58 C0.716694772,12.14 0,10.294 0,8.302 C0,7.73 0.0552878824,7.178 0.169959046,6.622 L0.169959046,6.604 C0.868224524,3.394 3.4565165,0.848 6.74307396,0.184 C7.31028668,0.054 7.89592869,0 8.5,0 C9.10407131,0 9.68971332,0.054 10.256926,0.166 C13.5434835,0.848 16.1317755,3.376 16.8116117,6.588 C16.9447121,7.14 17,7.712 17,8.302 Z" id="Stroke-1" stroke="#FFFFFF" stroke-width="1.5" stroke-linecap="round" stroke-linejoin="round"></path>
            <path d="M8.50020477,5.6536 C7.08729222,5.6536 5.94058058,6.7736 5.94058058,8.1536 C5.94058058,9.5336 7.08729222,10.6536 8.50020477,10.6536 C9.91311732,10.6536 11.059829,9.5336 11.059829,8.1536 C11.059829,6.7736 9.91311732,5.6536 8.50020477,5.6536" id="Fill-3" fill="#FFFFFF"></path>
        </g>
        <g id="components-/-image-/-med-icon-/-update" transform="translate(18.833333, 2.833333)">
            <g id="update" transform="translate(0.000000, 0.000000)">
                <path d="M4.16666667,0 C1.8766276,0 0,1.8766276 0,4.16666667 C0,6.45670573 1.8766276,8.33333333 4.16666667,8.33333333 C6.45670573,8.33333333 8.33333333,6.45670573 8.33333333,4.16666667 C8.33333333,1.8766276 6.45670573,0 4.16666667,0 Z" id="Path" fill="#3DC6FD"></path>
                <g id="Group" transform="translate(1.354189, 1.350482)" fill="#FFFFFF" fill-rule="nonzero">
                    <path d="M4.99510233,5.97277504e-05 C5.08011233,-0.00160039725 5.16208983,0.0314072278 5.22225233,0.0915147278 C5.28235983,0.151622228 5.31536733,0.233652228 5.31370733,0.318664728 L5.31370733,1.56866473 C5.31336553,1.65152598 5.28016233,1.73087723 5.22132483,1.78926473 C5.16248733,1.84761473 5.08284983,1.88023098 4.99998733,1.87993848 L3.74936233,1.87993848 C3.66527983,1.88179398 3.58402483,1.84966473 3.52392483,1.79087598 C3.46381733,1.73203848 3.42993108,1.65152598 3.42993108,1.56743848 C3.42993108,1.48335598 3.46381733,1.40278848 3.52392483,1.34400098 C3.58403233,1.28521223 3.66528733,1.25308348 3.74936233,1.25493848 L4.33896233,1.25493848 C3.93588733,0.861288478 3.39233733,0.629938478 2.81308733,0.629938478 C1.60122483,0.629938478 0.623712329,1.60737598 0.623712329,2.81931348 L0.623712329,2.81926465 C0.631231829,2.90647215 0.601788579,2.99280215 0.542608579,3.05730215 C0.483428579,3.12175465 0.399933579,3.15847465 0.312433579,3.15847465 C0.224933579,3.15847465 0.141433579,3.1217559 0.0822585788,3.05730215 C0.0230785788,2.99279965 -0.00636392118,2.90647715 0.00115482882,2.81926465 C0.00115482882,1.26976465 1.26352983,0.00426465275 2.81302983,0.00426465275 C3.51635483,0.00426465275 4.18002983,0.269789653 4.68865483,0.726289653 L4.68865483,0.318577153 L4.68865483,0.318625978 C4.68704345,0.235715978 4.71839108,0.155588478 4.77586233,0.0958259778 C4.83333358,0.0361097278 4.91218733,0.00163597775 4.99504983,0 L4.99510233,5.97277504e-05 Z" id="Path"></path>
                    <path d="M5.30882733,2.49580973 L5.30882733,2.49573792 C5.39339733,2.4947355 5.47478983,2.52808464 5.53441483,2.58809464 C5.59398483,2.64815339 5.62665108,2.72979464 5.62499108,2.81436964 C5.62499108,4.36386964 4.36274108,5.62624464 2.81311608,5.62624464 C2.11081608,5.62624464 1.44649108,5.36174464 0.937491079,4.90666964 L0.937491079,5.31258214 C0.939346579,5.39666464 0.907217329,5.47791964 0.848428579,5.53801964 C0.789639829,5.59812714 0.709078579,5.63201339 0.624991079,5.63201339 C0.540903579,5.63201339 0.460341079,5.59812714 0.401553579,5.53801964 C0.342764829,5.47791214 0.310636079,5.39665714 0.312491079,5.31258214 L0.312491079,4.06258214 C0.312637566,3.97957464 0.345841079,3.90008214 0.404678579,3.84158214 C0.463516079,3.78308589 0.543253579,3.75037089 0.626216079,3.75071339 L1.87377858,3.75071339 C1.98520483,3.75120168 2.08794108,3.81091839 2.14350358,3.90750089 C2.19906983,4.00408339 2.19906983,4.12292589 2.14350358,4.21951339 C2.08793733,4.31609589 1.98520358,4.37581339 1.87377858,4.37630089 L1.28661608,4.37630089 C1.68969108,4.77015089 2.23359108,5.00130089 2.81311608,5.00130089 C4.02497858,5.00130089 4.99999108,4.02630089 4.99999108,2.81442589 L4.99999108,2.81447473 C4.99833095,2.73112473 5.03001983,2.65061223 5.08802858,2.59078723 C5.14603608,2.53097223 5.22552858,2.49679348 5.30882858,2.49586473 L5.30882733,2.49580973 Z" id="Path"></path>
                </g>
                <path d="M8.33333333,4.16666667 C8.33333333,6.45670573 6.45670573,8.33333333 4.16666667,8.33333333 L4.16666667,0 C6.45670573,0 8.33333333,1.8766276 8.33333333,4.16666667 Z" id="Path" fill-opacity="0.1" fill="#000000" fill-rule="nonzero"></path>
            </g>
        </g>
    </g>
</svg>