<?xml version="1.0" encoding="UTF-8"?>
<svg width="30px" height="30px" viewBox="0 0 30 30" version="1.1" xmlns="http://www.w3.org/2000/svg" xmlns:xlink="http://www.w3.org/1999/xlink">
    <title>components / image / small icon / activity / risk tier exception deleted</title>
    <g id="components-/-image-/-small-icon-/-activity-/-risk-tier-exception-deleted" stroke="none" stroke-width="1" fill="none" fill-rule="evenodd">
        <g id="warning" opacity="0.200000003" transform="translate(4.000000, 5.000061)">
            <path d="M18.8788786,19.9999386 L3.12072311,19.9999386 C2.03925145,19.9999386 1.03467995,19.4323436 0.466155972,18.4996837 C-0.102535941,17.5671939 -0.154250469,16.4027306 0.329481841,15.4220762 L8.20855956,1.74856715 C8.73729023,0.67702942 9.81775448,0 10.9998008,0 C12.1818472,0 13.2623114,0.67702942 13.7910421,1.74856715 L21.6701198,15.4220762 C22.1538521,16.4027306 22.1021376,17.5671939 21.5334457,18.4996837 C20.9649217,19.4323436 19.9605181,19.9999386 18.8788786,19.9999386 Z" id="Path" stroke="#131415" stroke-width="1.5"></path>
            <g id="Group" transform="translate(9.482114, 4.900000)" fill="#131415">
                <path d="M3.03554205,10.6383753 C3.03554205,11.488151 2.3558654,12.1769237 1.51768708,12.1769237 C0.679508758,12.1769237 0,11.488151 0,10.6383753 C0,9.78876975 0.679508758,9.099997 1.51768708,9.099997 C2.3558654,9.099997 3.03554205,9.78876975 3.03554205,10.6383753 Z" id="Path" fill-rule="nonzero"></path>
                <rect id="Rectangle" x="0.0178862477" y="0" width="3" height="8" rx="1.5"></rect>
            </g>
        </g>
        <g id="components-/-image-/-med-icon-/-error" transform="translate(10.833333, 11.833333)">
            <g id="cancel" transform="translate(0.000000, 0.000000)">
                <path d="M4.16666667,0 C1.8766276,0 0,1.8766276 0,4.16666667 C0,6.45670573 1.8766276,8.33333333 4.16666667,8.33333333 C6.45670573,8.33333333 8.33333333,6.45670573 8.33333333,4.16666667 C8.33333333,1.8766276 6.45670573,0 4.16666667,0 Z" id="Path" fill="#EE0351"></path>
                <polygon id="Path" fill="#FFFFFF" fill-rule="nonzero" points="4.85512695 4.16666667 6.23697917 5.54851888 5.54851888 6.23697917 4.16666667 4.85512695 2.78481445 6.23697917 2.09635417 5.54851888 3.47820638 4.16666667 2.09635417 2.78481445 2.78481445 2.09635417 4.16666667 3.47820638 5.54851888 2.09635417 6.23697917 2.78481445"></polygon>
                <path d="M8.33333333,4.16666667 C8.33333333,6.45670573 6.45670573,8.33333333 4.16666667,8.33333333 L4.16666667,0 C6.45670573,0 8.33333333,1.8766276 8.33333333,4.16666667 Z" id="Path" fill-opacity="0.1" fill="#000000" fill-rule="nonzero"></path>
            </g>
        </g>
    </g>
</svg>