<?xml version="1.0" encoding="UTF-8"?>
<svg width="30px" height="30px" viewBox="0 0 30 30" version="1.1" xmlns="http://www.w3.org/2000/svg" xmlns:xlink="http://www.w3.org/1999/xlink">
    <title>components / image / small icon / activity / transaction denied</title>
    <g id="components-/-image-/-small-icon-/-activity-/-transaction-denied" stroke="none" stroke-width="1" fill="none" fill-rule="evenodd">
        <g id="Icon" opacity="0.200000003" transform="translate(6.000000, 2.000000)">
            <g id="Group-18">
                <path d="M14.8109053,21.0560778 L1.73341848,21.0560778 C0.775993675,21.0560778 0,20.2672824 0,19.2940629 L0,1.76201487 C0,0.788795326 0.775993675,0 1.73341848,0 L14.8109053,0 C15.7683301,0 16.5443238,0.788795326 16.5443238,1.76201487 L16.5443238,19.2940629 C16.5443238,20.2672824 15.7683301,21.0560778 14.8109053,21.0560778 Z" id="Stroke-1" stroke="#131415" stroke-width="1.62" stroke-linecap="round" stroke-linejoin="round"></path>
                <line x1="18.7110969" y1="1.13050874" x2="18.7110969" y2="19.9253341" id="Stroke-3" stroke="#131415" stroke-width="1.62" stroke-linecap="round" stroke-linejoin="round"></line>
                <polygon id="Stroke-15" stroke="#131415" stroke-width="1.62" stroke-linecap="round" stroke-linejoin="round" points="2.42112338 5.20257733 14.1234316 5.20257733 14.1234316 2.20257733 2.42112338 2.20257733"></polygon>
                <path d="M11.7535596,27 L4.79099535,27 C4.15251954,27 3.63538302,26.4743322 3.63538302,25.8253234 L3.63538302,21.0561365 L12.9091719,21.0561365 L12.9091719,25.8253234 C12.9091719,26.4743322 12.3920354,27 11.7535596,27 Z" id="Stroke-16" stroke="#131415" stroke-width="1.62" stroke-linecap="round" stroke-linejoin="round"></path>
                <polygon id="Fill-17" fill="#131415" points="5.52798711 27 8.69465377 27 8.69465377 21.0561365 5.52798711 21.0561365"></polygon>
            </g>
        </g>
        <g id="components-/-image-/-med-icon-/-error" transform="translate(10.083333, 10.833333)">
            <g id="cancel" transform="translate(0.000000, 0.000000)">
                <path d="M4.16666667,0 C1.8766276,0 0,1.8766276 0,4.16666667 C0,6.45670573 1.8766276,8.33333333 4.16666667,8.33333333 C6.45670573,8.33333333 8.33333333,6.45670573 8.33333333,4.16666667 C8.33333333,1.8766276 6.45670573,0 4.16666667,0 Z" id="Path" fill="#EE0351"></path>
                <polygon id="Path" fill="#FFFFFF" fill-rule="nonzero" points="4.85512695 4.16666667 6.23697917 5.54851888 5.54851888 6.23697917 4.16666667 4.85512695 2.78481445 6.23697917 2.09635417 5.54851888 3.47820638 4.16666667 2.09635417 2.78481445 2.78481445 2.09635417 4.16666667 3.47820638 5.54851888 2.09635417 6.23697917 2.78481445"></polygon>
                <path d="M8.33333333,4.16666667 C8.33333333,6.45670573 6.45670573,8.33333333 4.16666667,8.33333333 L4.16666667,0 C6.45670573,0 8.33333333,1.8766276 8.33333333,4.16666667 Z" id="Path" fill-opacity="0.1" fill="#000000" fill-rule="nonzero"></path>
            </g>
        </g>
    </g>
</svg>